<svg width="290" height="77" viewBox="0 0 290 77" fill="none" xmlns="http://www.w3.org/2000/svg">
<mask id="mask0_73_643" style="mask-type:alpha" maskUnits="userSpaceOnUse" x="2" y="40" width="288" height="30">
<rect x="2.24268" y="40.369" width="287.068" height="29.1553" fill="#D9D9D9"/>
</mask>
<g mask="url(#mask0_73_643)">
<mask id="mask1_73_643" style="mask-type:alpha" maskUnits="userSpaceOnUse" x="2" y="64" width="289" height="26">
<rect x="2.99036" y="64.2913" width="287.816" height="25.4175" fill="white"/>
</mask>
<g mask="url(#mask1_73_643)">
<path d="M3.73956 62.3938C6.56744 62.4275 10.2706 62.4443 14.8491 62.4443C15.859 62.4443 16.566 62.2423 16.97 61.8383C17.374 61.4343 17.576 61.0304 17.576 60.6264C17.576 60.3234 17.475 60.0877 17.273 59.9194C17.1047 59.7174 16.8017 59.5154 16.364 59.3134L13.0817 58.4045C11.2637 57.8322 9.86663 56.9064 8.89034 55.6271C7.94771 54.3141 7.4764 52.6645 7.4764 50.6783C7.4764 49.0287 7.89721 47.2108 8.73884 45.2245C9.58048 43.2046 11.2806 41.3867 13.8391 39.7708C16.4313 38.1212 20.1009 37.2964 24.8477 37.2964C26.9686 37.2964 28.8202 37.3805 30.4024 37.5489C31.9847 37.7172 33.8868 38.0202 36.1087 38.4578L32.5738 47.5474C29.8806 47.5138 26.8171 47.4969 23.3832 47.4969C21.6663 47.4969 20.8078 48.0356 20.8078 49.1129C20.8078 49.4158 20.892 49.6683 21.0603 49.8703C21.2623 50.0723 21.599 50.2575 22.0703 50.4258L24.6457 51.2338C26.8002 51.9744 28.3657 52.917 29.342 54.0616C30.3183 55.2063 30.8064 56.7885 30.8064 58.8084C30.8064 60.6264 30.3688 62.579 29.4935 64.6662C28.6182 66.7534 26.8844 68.6219 24.2922 70.2715C21.7336 71.8874 18.0978 72.6954 13.3846 72.6954C10.7251 72.6954 8.52002 72.5944 6.76943 72.3924C5.0525 72.1904 2.86426 71.8201 0.204709 71.2814L3.73956 62.3938ZM62.4315 38.0033C65.1583 38.0033 67.1783 38.4578 68.4912 39.3668C69.8041 40.2757 70.4606 41.6728 70.4606 43.5581C70.4606 45.1404 70.0061 47.1266 69.0972 49.5168L67.1783 54.4656C65.5287 58.6065 63.4919 61.569 61.068 63.3533C58.6778 65.1375 55.4964 66.0296 51.5239 66.0296H44.4037L42.0808 72.0389H28.7494L42.0303 38.0033H62.4315ZM55.4123 50.4258C55.5806 49.9208 55.6647 49.5673 55.6647 49.3653C55.6647 49.096 55.5638 48.9109 55.3618 48.8099C55.1598 48.7089 54.84 48.6584 54.4023 48.6584H51.2209L48.4436 55.6776H51.6754C52.3151 55.6776 52.7864 55.5766 53.0894 55.3746C53.426 55.1726 53.729 54.735 53.9983 54.0616L55.4123 50.4258ZM70.1947 51.9912C71.8443 47.8504 73.4602 44.77 75.0425 42.7501C76.6248 40.7302 78.6784 39.3163 81.2032 38.5083C83.7618 37.7003 87.3471 37.2964 91.9593 37.2964C95.0228 37.2964 97.4635 37.4984 99.2815 37.9023C101.133 38.3063 102.48 38.9628 103.321 39.8718C104.197 40.7471 104.634 41.9758 104.634 43.5581C104.634 45.5107 103.927 48.3217 102.513 51.9912L100.14 58.1015C98.4903 62.276 96.8407 65.3732 95.1911 67.3931C93.5752 69.413 91.5048 70.8101 88.9799 71.5844C86.4887 72.3587 82.937 72.7458 78.3249 72.7458C75.2613 72.7458 72.8038 72.5607 70.9522 72.1904C69.1343 71.8201 67.7877 71.1972 66.9124 70.322C66.0371 69.413 65.5994 68.1842 65.5994 66.6356C65.5994 64.6157 66.34 61.771 67.8213 58.1015L70.1947 51.9912ZM80.7488 59.1619C80.4458 59.8689 80.2943 60.4244 80.2943 60.8284C80.2943 61.165 80.4626 61.4175 80.7993 61.5858C81.1359 61.7205 81.7082 61.7878 82.5162 61.7878C83.3578 61.7878 83.9975 61.7205 84.4351 61.5858C84.8728 61.4175 85.2094 61.165 85.4451 60.8284C85.7144 60.458 86.0005 59.9026 86.3035 59.1619L89.5859 50.8298C89.8889 50.1228 90.0404 49.5842 90.0404 49.2139C90.0404 48.8772 89.872 48.6415 89.5354 48.5069C89.1987 48.3386 88.6096 48.2544 87.768 48.2544C86.9263 48.2544 86.2867 48.3386 85.849 48.5069C85.4114 48.6415 85.0747 48.8772 84.8391 49.2139C84.6034 49.5505 84.3341 50.0892 84.0311 50.8298L80.7488 59.1619ZM135.565 38.0033L131.273 49.0119H124.86L115.821 72.0389H102.691L111.68 49.0119H105.267L109.559 38.0033H135.565ZM138.193 38.0033H151.424L138.143 72.0389H124.912L138.193 38.0033ZM159.899 59.4144C159.63 60.0541 159.495 60.5422 159.495 60.8789C159.495 61.2155 159.647 61.4512 159.95 61.5858C160.287 61.7205 160.825 61.7878 161.566 61.7878C162.576 61.7878 163.3 61.6195 163.737 61.2828C164.175 60.9462 164.579 60.3065 164.949 59.3639L173.281 38.0033H186.512L178.483 58.7075C176.934 62.6463 175.385 65.592 173.837 67.5446C172.322 69.4635 170.319 70.8101 167.828 71.5844C165.336 72.3587 161.801 72.7458 157.223 72.7458C154.193 72.7458 151.786 72.5775 150.002 72.2409C148.218 71.9042 146.905 71.3319 146.063 70.5239C145.221 69.6823 144.801 68.5377 144.801 67.0901C144.801 65.2722 145.541 62.478 147.022 58.7075L155.102 38.0033H168.232L159.899 59.4144ZM214.912 38.0033L210.62 49.0119H204.207L195.167 72.0389H182.038L191.027 49.0119H184.613L188.906 38.0033H214.912ZM222.576 51.9912C224.225 47.8504 225.841 44.77 227.424 42.7501C229.006 40.7302 231.06 39.3163 233.584 38.5083C236.143 37.7003 239.728 37.2964 244.34 37.2964C247.404 37.2964 249.845 37.4984 251.663 37.9023C253.514 38.3063 254.861 38.9628 255.702 39.8718C256.578 40.7471 257.015 41.9758 257.015 43.5581C257.015 45.5107 256.308 48.3217 254.894 51.9912L252.521 58.1015C250.872 62.276 249.222 65.3732 247.572 67.3931C245.956 69.413 243.886 70.8101 241.361 71.5844C238.87 72.3587 235.318 72.7458 230.706 72.7458C227.642 72.7458 225.185 72.5607 223.333 72.1904C221.515 71.8201 220.169 71.1972 219.294 70.322C218.418 69.413 217.981 68.1842 217.981 66.6356C217.981 64.6157 218.721 61.771 220.202 58.1015L222.576 51.9912ZM233.13 59.1619C232.827 59.8689 232.675 60.4244 232.675 60.8284C232.675 61.165 232.844 61.4175 233.18 61.5858C233.517 61.7205 234.089 61.7878 234.897 61.7878C235.739 61.7878 236.379 61.7205 236.816 61.5858C237.254 61.4175 237.591 61.165 237.826 60.8284C238.096 60.458 238.382 59.9026 238.685 59.1619L241.967 50.8298C242.27 50.1228 242.422 49.5842 242.422 49.2139C242.422 48.8772 242.253 48.6415 241.917 48.5069C241.58 48.3386 240.991 48.2544 240.149 48.2544C239.307 48.2544 238.668 48.3386 238.23 48.5069C237.793 48.6415 237.456 48.8772 237.22 49.2139C236.985 49.5505 236.715 50.0892 236.412 50.8298L233.13 59.1619Z" fill="#E2FF08" fill-opacity="0.8"/>
</g>
</g>
<mask id="mask2_73_643" style="mask-type:alpha" maskUnits="userSpaceOnUse" x="0" y="44" width="288" height="31">
<rect x="0.747559" y="44.8544" width="287.068" height="29.1553" fill="#D9D9D9"/>
</mask>
<g mask="url(#mask2_73_643)">
<mask id="mask3_73_643" style="mask-type:alpha" maskUnits="userSpaceOnUse" x="1" y="71" width="289" height="26">
<rect x="1.49512" y="71.0194" width="287.816" height="25.4175" fill="white"/>
</mask>
<g mask="url(#mask3_73_643)">
<path d="M2.24444 66.8792C5.07232 66.9129 8.77549 66.9297 13.354 66.9297C14.3639 66.9297 15.0709 66.7277 15.4749 66.3237C15.8789 65.9197 16.0808 65.5158 16.0808 65.1118C16.0808 64.8088 15.9799 64.5731 15.7779 64.4048C15.6095 64.2028 15.3065 64.0008 14.8689 63.7988L11.5865 62.8899C9.76862 62.3176 8.37151 61.3918 7.39522 60.1125C6.45259 58.7996 5.98128 57.15 5.98128 55.1637C5.98128 53.5141 6.4021 51.6962 7.24373 49.7099C8.08536 47.69 9.78545 45.8721 12.344 44.2562C14.9362 42.6066 18.6057 41.7818 23.3525 41.7818C25.4734 41.7818 27.325 41.8659 28.9073 42.0343C30.4896 42.2026 32.3917 42.5056 34.6136 42.9432L31.0787 52.0328C28.3855 51.9992 25.322 51.9823 21.8881 51.9823C20.1712 51.9823 19.3127 52.521 19.3127 53.5983C19.3127 53.9013 19.3969 54.1537 19.5652 54.3557C19.7672 54.5577 20.1038 54.7429 20.5752 54.9112L23.1505 55.7192C25.3051 56.4598 26.8706 57.4024 27.8468 58.5471C28.8231 59.6917 29.3113 61.2739 29.3113 63.2939C29.3113 65.1118 28.8736 67.0644 27.9983 69.1516C27.123 71.2389 25.3893 73.1073 22.7971 74.7569C20.2385 76.3728 16.6027 77.1808 11.8895 77.1808C9.22998 77.1808 7.0249 77.0798 5.27431 76.8778C3.55738 76.6758 1.36915 76.3055 -1.29041 75.7668L2.24444 66.8792ZM60.9363 42.4887C63.6632 42.4887 65.6831 42.9432 66.9961 43.8522C68.309 44.7612 68.9655 46.1583 68.9655 48.0435C68.9655 49.6258 68.511 51.612 67.6021 54.0023L65.6831 58.951C64.0335 63.0919 61.9968 66.0544 59.5729 67.8387C57.1827 69.6229 54.0013 70.515 50.0288 70.515H42.9086L40.5857 76.5243H27.2543L40.5352 42.4887H60.9363ZM53.9171 54.9112C54.0855 54.4062 54.1696 54.0528 54.1696 53.8508C54.1696 53.5814 54.0686 53.3963 53.8666 53.2953C53.6647 53.1943 53.3448 53.1438 52.9072 53.1438H49.7258L46.9484 60.163H50.1803C50.8199 60.163 51.2913 60.062 51.5942 59.86C51.9309 59.658 52.2339 59.2204 52.5032 58.5471L53.9171 54.9112ZM68.6996 56.4766C70.3492 52.3358 71.9651 49.2555 73.5474 47.2355C75.1297 45.2156 77.1832 43.8017 79.7081 42.9937C82.2667 42.1858 85.852 41.7818 90.4642 41.7818C93.5277 41.7818 95.9684 41.9838 97.7864 42.3878C99.6379 42.7917 100.985 43.4482 101.826 44.3572C102.701 45.2325 103.139 46.4612 103.139 48.0435C103.139 49.9961 102.432 52.8071 101.018 56.4766L98.6448 62.5869C96.9952 66.7614 95.3456 69.8586 93.696 71.8785C92.0801 73.8984 90.0097 75.2955 87.4848 76.0698C84.9936 76.8441 81.4419 77.2313 76.8297 77.2313C73.7662 77.2313 71.3087 77.0461 69.4571 76.6758C67.6391 76.3055 66.2925 75.6827 65.4172 74.8074C64.5419 73.8984 64.1043 72.6696 64.1043 71.121C64.1043 69.1011 64.8449 66.2564 66.3262 62.5869L68.6996 56.4766ZM79.2536 63.6473C78.9507 64.3543 78.7992 64.9098 78.7992 65.3138C78.7992 65.6504 78.9675 65.9029 79.3041 66.0712C79.6408 66.2059 80.2131 66.2732 81.0211 66.2732C81.8627 66.2732 82.5023 66.2059 82.94 66.0712C83.3776 65.9029 83.7143 65.6504 83.9499 65.3138C84.2193 64.9435 84.5054 64.388 84.8084 63.6473L88.0908 55.3152C88.3938 54.6082 88.5452 54.0696 88.5452 53.6993C88.5452 53.3626 88.3769 53.127 88.0403 52.9923C87.7036 52.824 87.1145 52.7398 86.2728 52.7398C85.4312 52.7398 84.7916 52.824 84.3539 52.9923C83.9163 53.127 83.5796 53.3626 83.344 53.6993C83.1083 54.0359 82.839 54.5746 82.536 55.3152L79.2536 63.6473ZM134.07 42.4887L129.778 53.4973H123.365L114.326 76.5243H101.196L110.185 53.4973H103.772L108.064 42.4887H134.07ZM136.698 42.4887H149.929L136.648 76.5243H123.417L136.698 42.4887ZM158.404 63.8998C158.135 64.5395 158 65.0276 158 65.3643C158 65.7009 158.152 65.9366 158.455 66.0712C158.791 66.2059 159.33 66.2732 160.071 66.2732C161.081 66.2732 161.804 66.1049 162.242 65.7683C162.68 65.4316 163.084 64.792 163.454 63.8493L171.786 42.4887H185.017L176.987 63.1929C175.439 67.1317 173.89 70.0774 172.342 72.03C170.827 73.9489 168.824 75.2955 166.332 76.0698C163.841 76.8441 160.306 77.2313 155.728 77.2313C152.698 77.2313 150.291 77.0629 148.507 76.7263C146.722 76.3896 145.409 75.8173 144.568 75.0094C143.726 74.1677 143.305 73.0231 143.305 71.5755C143.305 69.7576 144.046 66.9634 145.527 63.1929L153.607 42.4887H166.736L158.404 63.8998ZM213.417 42.4887L209.125 53.4973H202.711L193.672 76.5243H180.543L189.531 53.4973H183.118L187.411 42.4887H213.417ZM221.081 56.4766C222.73 52.3358 224.346 49.2555 225.929 47.2355C227.511 45.2156 229.564 43.8017 232.089 42.9937C234.648 42.1858 238.233 41.7818 242.845 41.7818C245.909 41.7818 248.35 41.9838 250.168 42.3878C252.019 42.7917 253.366 43.4482 254.207 44.3572C255.083 45.2325 255.52 46.4612 255.52 48.0435C255.52 49.9961 254.813 52.8071 253.399 56.4766L251.026 62.5869C249.376 66.7614 247.727 69.8586 246.077 71.8785C244.461 73.8984 242.391 75.2955 239.866 76.0698C237.375 76.8441 233.823 77.2313 229.211 77.2313C226.147 77.2313 223.69 77.0461 221.838 76.6758C220.02 76.3055 218.674 75.6827 217.798 74.8074C216.923 73.8984 216.485 72.6696 216.485 71.121C216.485 69.1011 217.226 66.2564 218.707 62.5869L221.081 56.4766ZM231.635 63.6473C231.332 64.3543 231.18 64.9098 231.18 65.3138C231.18 65.6504 231.349 65.9029 231.685 66.0712C232.022 66.2059 232.594 66.2732 233.402 66.2732C234.244 66.2732 234.884 66.2059 235.321 66.0712C235.759 65.9029 236.095 65.6504 236.331 65.3138C236.6 64.9435 236.887 64.388 237.19 63.6473L240.472 55.3152C240.775 54.6082 240.926 54.0696 240.926 53.6993C240.926 53.3626 240.758 53.127 240.421 52.9923C240.085 52.824 239.496 52.7398 238.654 52.7398C237.812 52.7398 237.173 52.824 236.735 52.9923C236.297 53.127 235.961 53.3626 235.725 53.6993C235.489 54.0359 235.22 54.5746 234.917 55.3152L231.635 63.6473Z" fill="#E2FF08" fill-opacity="0.4"/>
</g>
</g>
<mask id="mask4_73_643" style="mask-type:alpha" maskUnits="userSpaceOnUse" x="0" y="47" width="288" height="30">
<rect y="47.8447" width="287.068" height="29.1553" fill="#D9D9D9"/>
</mask>
<g mask="url(#mask4_73_643)">
<mask id="mask5_73_643" style="mask-type:alpha" maskUnits="userSpaceOnUse" x="0" y="75" width="289" height="26">
<rect x="0.747559" y="75.5049" width="287.816" height="25.4175" fill="white"/>
</mask>
<g mask="url(#mask5_73_643)">
<path d="M1.49688 69.8695C4.32476 69.9032 8.02794 69.92 12.6064 69.92C13.6164 69.92 14.3233 69.718 14.7273 69.314C15.1313 68.91 15.3333 68.5061 15.3333 68.1021C15.3333 67.7991 15.2323 67.5634 15.0303 67.3951C14.862 67.1931 14.559 66.9911 14.1213 66.7891L10.839 65.8802C9.02106 65.3079 7.62395 64.3821 6.64766 63.1028C5.70504 61.7898 5.23372 60.1402 5.23372 58.154C5.23372 56.5044 5.65454 54.6865 6.49617 52.7002C7.3378 50.6803 9.03789 48.8624 11.5965 47.2465C14.1887 45.5969 17.8582 44.7721 22.605 44.7721C24.7259 44.7721 26.5775 44.8562 28.1597 45.0246C29.742 45.1929 31.6441 45.4959 33.866 45.9335L30.3311 55.0231C27.6379 54.9895 24.5744 54.9726 21.1405 54.9726C19.4236 54.9726 18.5652 55.5113 18.5652 56.5886C18.5652 56.8916 18.6493 57.144 18.8176 57.346C19.0196 57.548 19.3563 57.7332 19.8276 57.9015L22.403 58.7095C24.5576 59.4501 26.123 60.3927 27.0993 61.5374C28.0756 62.682 28.5637 64.2642 28.5637 66.2842C28.5637 68.1021 28.1261 70.0547 27.2508 72.1419C26.3755 74.2291 24.6417 76.0976 22.0495 77.7472C19.4909 79.3631 15.8551 80.1711 11.142 80.1711C8.48242 80.1711 6.27734 80.0701 4.52675 79.8681C2.80983 79.6661 0.621587 79.2958 -2.03797 78.7571L1.49688 69.8695ZM60.1888 45.479C62.9157 45.479 64.9356 45.9335 66.2485 46.8425C67.5615 47.7514 68.2179 49.1486 68.2179 51.0338C68.2179 52.6161 67.7635 54.6023 66.8545 56.9926L64.9356 61.9413C63.286 66.0822 61.2492 69.0447 58.8253 70.829C56.4351 72.6132 53.2537 73.5053 49.2813 73.5053H42.1611L39.8382 79.5146H26.5067L39.7877 45.479H60.1888ZM53.1696 57.9015C53.3379 57.3965 53.4221 57.043 53.4221 56.8411C53.4221 56.5717 53.3211 56.3866 53.1191 56.2856C52.9171 56.1846 52.5973 56.1341 52.1596 56.1341H48.9783L46.2009 63.1533H49.4327C50.0724 63.1533 50.5437 63.0523 50.8467 62.8503C51.1833 62.6483 51.4863 62.2107 51.7556 61.5374L53.1696 57.9015ZM67.952 59.4669C69.6016 55.3261 71.2176 52.2458 72.7998 50.2258C74.3821 48.2059 76.4357 46.792 78.9606 45.984C81.5191 45.1761 85.1045 44.7721 89.7166 44.7721C92.7801 44.7721 95.2209 44.9741 97.0388 45.378C98.8904 45.782 100.237 46.4385 101.079 47.3475C101.954 48.2228 102.392 49.4515 102.392 51.0338C102.392 52.9864 101.685 55.7974 100.271 59.4669L97.8973 65.5772C96.2477 69.7517 94.5981 72.8489 92.9485 74.8688C91.3325 76.8887 89.2621 78.2858 86.7372 79.0601C84.246 79.8344 80.6943 80.2216 76.0822 80.2216C73.0187 80.2216 70.5611 80.0364 68.7095 79.6661C66.8916 79.2958 65.545 78.673 64.6697 77.7977C63.7944 76.8887 63.3567 75.6599 63.3567 74.1113C63.3567 72.0914 64.0974 69.2467 65.5786 65.5772L67.952 59.4669ZM78.5061 66.6376C78.2031 67.3446 78.0516 67.9001 78.0516 68.3041C78.0516 68.6407 78.2199 68.8932 78.5566 69.0615C78.8932 69.1962 79.4655 69.2635 80.2735 69.2635C81.1151 69.2635 81.7548 69.1962 82.1924 69.0615C82.6301 68.8932 82.9667 68.6407 83.2024 68.3041C83.4717 67.9337 83.7579 67.3783 84.0609 66.6376L87.3432 58.3055C87.6462 57.5985 87.7977 57.0599 87.7977 56.6896C87.7977 56.3529 87.6294 56.1173 87.2927 55.9826C86.9561 55.8143 86.3669 55.7301 85.5253 55.7301C84.6837 55.7301 84.044 55.8143 83.6064 55.9826C83.1687 56.1173 82.8321 56.3529 82.5964 56.6896C82.3608 57.0262 82.0914 57.5649 81.7884 58.3055L78.5061 66.6376ZM133.323 45.479L129.03 56.4876H122.617L113.578 79.5146H100.449L109.437 56.4876H103.024L107.316 45.479H133.323ZM135.951 45.479H149.181L135.9 79.5146H122.67L135.951 45.479ZM157.657 66.8901C157.387 67.5298 157.253 68.0179 157.253 68.3546C157.253 68.6912 157.404 68.9269 157.707 69.0615C158.044 69.1962 158.583 69.2635 159.323 69.2635C160.333 69.2635 161.057 69.0952 161.495 68.7585C161.932 68.4219 162.336 67.7823 162.706 66.8396L171.039 45.479H184.269L176.24 66.1832C174.691 70.122 173.143 73.0677 171.594 75.0203C170.079 76.9392 168.076 78.2858 165.585 79.0601C163.094 79.8344 159.559 80.2216 154.98 80.2216C151.95 80.2216 149.543 80.0532 147.759 79.7166C145.975 79.3799 144.662 78.8076 143.82 77.9997C142.979 77.158 142.558 76.0134 142.558 74.5658C142.558 72.7479 143.298 69.9537 144.78 66.1832L152.859 45.479H165.989L157.657 66.8901ZM212.669 45.479L208.377 56.4876H201.964L192.925 79.5146H179.795L188.784 56.4876H182.371L186.663 45.479H212.669ZM220.333 59.4669C221.983 55.3261 223.599 52.2458 225.181 50.2258C226.763 48.2059 228.817 46.792 231.342 45.984C233.9 45.1761 237.486 44.7721 242.098 44.7721C245.161 44.7721 247.602 44.9741 249.42 45.378C251.272 45.782 252.618 46.4385 253.46 47.3475C254.335 48.2228 254.773 49.4515 254.773 51.0338C254.773 52.9864 254.066 55.7974 252.652 59.4669L250.278 65.5772C248.629 69.7517 246.979 72.8489 245.33 74.8688C243.714 76.8887 241.643 78.2858 239.118 79.0601C236.627 79.8344 233.075 80.2216 228.463 80.2216C225.4 80.2216 222.942 80.0364 221.091 79.6661C219.273 79.2958 217.926 78.673 217.051 77.7977C216.176 76.8887 215.738 75.6599 215.738 74.1113C215.738 72.0914 216.479 69.2467 217.96 65.5772L220.333 59.4669ZM230.887 66.6376C230.584 67.3446 230.433 67.9001 230.433 68.3041C230.433 68.6407 230.601 68.8932 230.938 69.0615C231.274 69.1962 231.847 69.2635 232.655 69.2635C233.496 69.2635 234.136 69.1962 234.574 69.0615C235.011 68.8932 235.348 68.6407 235.584 68.3041C235.853 67.9337 236.139 67.3783 236.442 66.6376L239.724 58.3055C240.027 57.5985 240.179 57.0599 240.179 56.6896C240.179 56.3529 240.011 56.1173 239.674 55.9826C239.337 55.8143 238.748 55.7301 237.906 55.7301C237.065 55.7301 236.425 55.8143 235.988 55.9826C235.55 56.1173 235.213 56.3529 234.978 56.6896C234.742 57.0262 234.473 57.5649 234.17 58.3055L230.887 66.6376Z" fill="#E2FF08" fill-opacity="0.2"/>
</g>
</g>
<mask id="path-10-inside-1_73_643" fill="white">
<path d="M8.97259 51.9278C11.8005 51.9615 15.5036 51.9783 20.0821 51.9783C21.0921 51.9783 21.799 51.7763 22.203 51.3723C22.607 50.9683 22.809 50.5643 22.809 50.1604C22.809 49.8574 22.708 49.6217 22.506 49.4534C22.3377 49.2514 22.0347 49.0494 21.5971 48.8474L18.3147 47.9385C16.4968 47.3662 15.0997 46.4404 14.1234 45.1611C13.1807 43.8481 12.7094 42.1985 12.7094 40.2123C12.7094 38.5627 13.1302 36.7448 13.9719 34.7585C14.8135 32.7386 16.5136 30.9207 19.0722 29.3048C21.6644 27.6552 25.3339 26.8304 30.0807 26.8304C32.2016 26.8304 34.0532 26.9145 35.6355 27.0829C37.2177 27.2512 39.1198 27.5542 41.3417 27.9918L37.8069 37.0814C35.1136 37.0478 32.0501 37.0309 28.6162 37.0309C26.8993 37.0309 26.0409 37.5696 26.0409 38.6469C26.0409 38.9498 26.125 39.2023 26.2933 39.4043C26.4953 39.6063 26.832 39.7915 27.3033 39.9598L29.8787 40.7678C32.0333 41.5084 33.5987 42.451 34.575 43.5956C35.5513 44.7403 36.0394 46.3225 36.0394 48.3424C36.0394 50.1604 35.6018 52.1129 34.7265 54.2002C33.8512 56.2874 32.1174 58.1559 29.5252 59.8055C26.9667 61.4214 23.3308 62.2293 18.6177 62.2293C15.9581 62.2293 13.7531 62.1284 12.0025 61.9264C10.2855 61.7244 8.09729 61.3541 5.43774 60.8154L8.97259 51.9278ZM67.6645 27.5373C70.3914 27.5373 72.4113 27.9918 73.7242 28.9008C75.0372 29.8097 75.6936 31.2068 75.6936 33.0921C75.6936 34.6744 75.2392 36.6606 74.3302 39.0508L72.4113 43.9996C70.7617 48.1405 68.7249 51.103 66.301 52.8872C63.9108 54.6715 60.7295 55.5636 56.757 55.5636H49.6368L47.3139 61.5729H33.9824L47.2634 27.5373H67.6645ZM60.6453 39.9598C60.8136 39.4548 60.8978 39.1013 60.8978 38.8993C60.8978 38.63 60.7968 38.4449 60.5948 38.3439C60.3928 38.2429 60.073 38.1924 59.6353 38.1924H56.454L53.6766 45.2116H56.9085C57.5481 45.2116 58.0194 45.1106 58.3224 44.9086C58.659 44.7066 58.962 44.2689 59.2314 43.5956L60.6453 39.9598ZM75.4277 41.5252C77.0773 37.3844 78.6933 34.304 80.2755 32.2841C81.8578 30.2642 83.9114 28.8503 86.4363 28.0423C88.9948 27.2343 92.5802 26.8304 97.1923 26.8304C100.256 26.8304 102.697 27.0324 104.515 27.4363C106.366 27.8403 107.713 28.4968 108.554 29.4058C109.43 30.281 109.867 31.5098 109.867 33.0921C109.867 35.0447 109.16 37.8557 107.746 41.5252L105.373 47.6355C103.723 51.81 102.074 54.9072 100.424 56.9271C98.8082 58.947 96.7378 60.3441 94.2129 61.1184C91.7217 61.8927 88.17 62.2798 83.5579 62.2798C80.4944 62.2798 78.0368 62.0947 76.1852 61.7244C74.3673 61.3541 73.0207 60.7312 72.1454 59.8559C71.2701 58.947 70.8324 57.7182 70.8324 56.1696C70.8324 54.1497 71.5731 51.305 73.0543 47.6355L75.4277 41.5252ZM85.9818 48.6959C85.6788 49.4029 85.5273 49.9584 85.5273 50.3624C85.5273 50.699 85.6956 50.9515 86.0323 51.1198C86.3689 51.2545 86.9413 51.3218 87.7492 51.3218C88.5909 51.3218 89.2305 51.2545 89.6681 51.1198C90.1058 50.9515 90.4424 50.699 90.6781 50.3624C90.9474 49.992 91.2336 49.4366 91.5366 48.6959L94.8189 40.3638C95.1219 39.6568 95.2734 39.1182 95.2734 38.7479C95.2734 38.4112 95.1051 38.1755 94.7684 38.0409C94.4318 37.8726 93.8426 37.7884 93.001 37.7884C92.1594 37.7884 91.5197 37.8726 91.0821 38.0409C90.6444 38.1755 90.3078 38.4112 90.0721 38.7479C89.8365 39.0845 89.5671 39.6231 89.2642 40.3638L85.9818 48.6959ZM140.798 27.5373L136.506 38.5459H130.093L121.054 61.5729H107.924L116.913 38.5459H110.5L114.792 27.5373H140.798ZM143.426 27.5373H156.657L143.376 61.5729H130.145L143.426 27.5373ZM165.132 48.9484C164.863 49.5881 164.728 50.0762 164.728 50.4129C164.728 50.7495 164.88 50.9852 165.183 51.1198C165.52 51.2545 166.058 51.3218 166.799 51.3218C167.809 51.3218 168.533 51.1535 168.97 50.8168C169.408 50.4802 169.812 49.8405 170.182 48.8979L178.514 27.5373H191.745L183.716 48.2414C182.167 52.1803 180.618 55.126 179.07 57.0786C177.555 58.9975 175.552 60.3441 173.061 61.1184C170.569 61.8927 167.035 62.2798 162.456 62.2798C159.426 62.2798 157.019 62.1115 155.235 61.7749C153.451 61.4382 152.138 60.8659 151.296 60.0579C150.454 59.2163 150.034 58.0717 150.034 56.6241C150.034 54.8062 150.774 52.012 152.255 48.2414L160.335 27.5373H173.465L165.132 48.9484ZM220.145 27.5373L215.853 38.5459H209.44L200.4 61.5729H187.271L196.26 38.5459H189.846L194.139 27.5373H220.145ZM227.809 41.5252C229.459 37.3844 231.074 34.304 232.657 32.2841C234.239 30.2642 236.293 28.8503 238.817 28.0423C241.376 27.2343 244.961 26.8304 249.573 26.8304C252.637 26.8304 255.078 27.0324 256.896 27.4363C258.747 27.8403 260.094 28.4968 260.935 29.4058C261.811 30.281 262.248 31.5098 262.248 33.0921C262.248 35.0447 261.541 37.8557 260.128 41.5252L257.754 47.6355C256.105 51.81 254.455 54.9072 252.805 56.9271C251.189 58.947 249.119 60.3441 246.594 61.1184C244.103 61.8927 240.551 62.2798 235.939 62.2798C232.876 62.2798 230.418 62.0947 228.566 61.7244C226.748 61.3541 225.402 60.7312 224.527 59.8559C223.651 58.947 223.214 57.7182 223.214 56.1696C223.214 54.1497 223.954 51.305 225.436 47.6355L227.809 41.5252ZM238.363 48.6959C238.06 49.4029 237.908 49.9584 237.908 50.3624C237.908 50.699 238.077 50.9515 238.413 51.1198C238.75 51.2545 239.322 51.3218 240.13 51.3218C240.972 51.3218 241.612 51.2545 242.049 51.1198C242.487 50.9515 242.824 50.699 243.059 50.3624C243.329 49.992 243.615 49.4366 243.918 48.6959L247.2 40.3638C247.503 39.6568 247.655 39.1182 247.655 38.7479C247.655 38.4112 247.486 38.1755 247.15 38.0409C246.813 37.8726 246.224 37.7884 245.382 37.7884C244.541 37.7884 243.901 37.8726 243.463 38.0409C243.026 38.1755 242.689 38.4112 242.453 38.7479C242.218 39.0845 241.948 39.6231 241.645 40.3638L238.363 48.6959Z"/>
</mask>
<path d="M8.97259 51.9278L8.99039 50.4327L7.96301 50.4205L7.5833 51.3752L8.97259 51.9278ZM22.203 51.3723L21.1458 50.3151H21.1458L22.203 51.3723ZM22.506 49.4534L21.3574 50.4106L21.4444 50.515L21.5488 50.602L22.506 49.4534ZM21.597 48.8474L22.2236 47.4899L22.1132 47.4389L21.9961 47.4065L21.597 48.8474ZM18.3147 47.9385L17.8657 49.3646L17.8906 49.3724L17.9157 49.3794L18.3147 47.9385ZM14.1234 45.1611L12.9088 46.0331L12.9216 46.0508L12.9348 46.0681L14.1234 45.1611ZM13.9719 34.7585L15.3486 35.3419L15.352 35.3336L13.9719 34.7585ZM19.0722 29.3048L19.8706 30.5689L19.8749 30.5662L19.0722 29.3048ZM35.6355 27.0829L35.7936 25.5961L35.6355 27.0829ZM41.3417 27.9918L42.7352 28.5337L43.3822 26.8699L41.6306 26.5249L41.3417 27.9918ZM37.8069 37.0814L37.7882 38.5765L38.8246 38.5894L39.2003 37.6233L37.8069 37.0814ZM26.2933 39.4043L25.1447 40.3615L25.1882 40.4136L25.2361 40.4616L26.2933 39.4043ZM27.3033 39.9598L26.8004 41.3678L26.8279 41.3777L26.8557 41.3864L27.3033 39.9598ZM29.8787 40.7678L30.3647 39.3538L30.3456 39.3472L30.3263 39.3412L29.8787 40.7678ZM34.575 43.5956L33.4374 44.5659V44.5659L34.575 43.5956ZM34.7265 54.2002L33.3477 53.622L34.7265 54.2002ZM29.5252 59.8055L30.3236 61.0696L30.3279 61.0668L29.5252 59.8055ZM12.0025 61.9264L11.8278 63.4113L11.8311 63.4117L12.0025 61.9264ZM5.43774 60.8154L4.04845 60.2628L3.38713 61.9256L5.14095 62.2808L5.43774 60.8154ZM8.95479 53.4228C11.7911 53.4566 15.5008 53.4734 20.0821 53.4734V50.4831C15.5064 50.4831 11.8099 50.4663 8.99039 50.4327L8.95479 53.4228ZM20.0821 53.4734C21.2082 53.4734 22.4258 53.264 23.2603 52.4295L21.1458 50.3151C21.1678 50.2931 21.1366 50.3384 20.9591 50.3892C20.7785 50.4408 20.496 50.4831 20.0821 50.4831V53.4734ZM23.2603 52.4295C23.8272 51.8626 24.3041 51.1007 24.3041 50.1604H21.3139C21.3139 50.104 21.3298 50.0785 21.3202 50.0977C21.3072 50.1237 21.2628 50.198 21.1458 50.3151L23.2603 52.4295ZM24.3041 50.1604C24.3041 49.4892 24.0601 48.8022 23.4632 48.3048L21.5488 50.602C21.4734 50.5391 21.4039 50.45 21.359 50.3453C21.3166 50.2464 21.3139 50.1751 21.3139 50.1604H24.3041ZM23.6546 48.4962C23.2703 48.035 22.722 47.7199 22.2236 47.4899L20.9705 50.205C21.14 50.2832 21.253 50.3477 21.3232 50.3944C21.3974 50.4439 21.3931 50.4533 21.3574 50.4106L23.6546 48.4962ZM21.9961 47.4065L18.7137 46.4975L17.9157 49.3794L21.198 50.2883L21.9961 47.4065ZM18.7637 46.5123C17.1843 46.0151 16.0686 45.2456 15.3119 44.254L12.9348 46.0681C14.1307 47.6352 15.8092 48.7172 17.8657 49.3646L18.7637 46.5123ZM15.3379 44.2891C14.616 43.2836 14.2046 41.9584 14.2046 40.2123H11.2143C11.2143 42.4387 11.7455 44.4127 12.9088 46.0331L15.3379 44.2891ZM14.2046 40.2123C14.2046 38.8145 14.5622 37.1977 15.3485 35.3419L12.5952 34.1752C11.6983 36.2919 11.2143 38.3109 11.2143 40.2123H14.2046ZM15.352 35.3336C16.0377 33.6879 17.4753 32.0817 19.8706 30.5689L18.2738 28.0406C15.5519 29.7597 13.5893 31.7894 12.5917 34.1835L15.352 35.3336ZM19.8749 30.5662C22.1298 29.1312 25.4752 28.3255 30.0807 28.3255V25.3352C25.1926 25.3352 21.1989 26.1792 18.2695 28.0434L19.8749 30.5662ZM30.0807 28.3255C32.165 28.3255 33.9615 28.4084 35.4773 28.5696L35.7936 25.5961C34.1449 25.4207 32.2382 25.3352 30.0807 25.3352V28.3255ZM35.4773 28.5696C37.0017 28.7318 38.8577 29.0264 41.0528 29.4588L41.6306 26.5249C39.3819 26.0819 37.4338 25.7706 35.7936 25.5961L35.4773 28.5696ZM39.9482 27.4499L36.4134 36.5395L39.2003 37.6233L42.7352 28.5337L39.9482 27.4499ZM37.8255 35.5864C35.1247 35.5526 32.0547 35.5358 28.6162 35.5358V38.5261C32.0455 38.5261 35.1026 38.5429 37.7882 38.5765L37.8255 35.5864ZM28.6162 35.5358C27.6498 35.5358 26.6706 35.6787 25.8901 36.1684C24.9929 36.7314 24.5457 37.6327 24.5457 38.6469H27.536C27.536 38.5787 27.5484 38.592 27.5222 38.6413C27.4939 38.6947 27.4619 38.7123 27.4794 38.7014C27.5068 38.6842 27.5979 38.6367 27.7956 38.5954C27.9918 38.5544 28.2606 38.5261 28.6162 38.5261V35.5358ZM24.5457 38.6469C24.5457 39.2434 24.719 39.8506 25.1447 40.3615L27.442 38.4472C27.4786 38.4912 27.5063 38.5423 27.5224 38.5907C27.5376 38.6363 27.536 38.6595 27.536 38.6469H24.5457ZM25.2361 40.4616C25.6712 40.8966 26.2548 41.173 26.8004 41.3678L27.8062 38.5518C27.6245 38.4869 27.4991 38.4293 27.4179 38.3846C27.3335 38.3382 27.3242 38.3208 27.3506 38.3471L25.2361 40.4616ZM26.8557 41.3864L29.4311 42.1944L30.3263 39.3412L27.7509 38.5332L26.8557 41.3864ZM29.3927 42.1817C31.4145 42.8767 32.7019 43.7036 33.4374 44.5659L35.7126 42.6254C34.4955 41.1985 32.652 40.1401 30.3647 39.3538L29.3927 42.1817ZM33.4374 44.5659C34.1141 45.3593 34.5443 46.5555 34.5443 48.3424H37.5346C37.5346 46.0896 36.9884 44.1212 35.7126 42.6254L33.4374 44.5659ZM34.5443 48.3424C34.5443 49.9196 34.1644 51.6744 33.3477 53.622L36.1053 54.7784C37.0392 52.5515 37.5346 50.4011 37.5346 48.3424H34.5443ZM33.3477 53.622C32.6257 55.3436 31.1475 57.0009 28.7225 58.5441L30.3279 61.0668C33.0874 59.3108 35.0767 57.2313 36.1053 54.7784L33.3477 53.622ZM28.7268 58.5413C26.5056 59.9442 23.1931 60.7342 18.6177 60.7342V63.7245C23.4686 63.7245 27.4277 62.8986 30.3236 61.0696L28.7268 58.5413ZM18.6177 60.7342C15.9897 60.7342 13.8467 60.6341 12.1738 60.4411L11.8311 63.4117C13.6594 63.6226 15.9265 63.7245 18.6177 63.7245V60.7342ZM12.1772 60.4415C10.5173 60.2462 8.3736 59.8845 5.73453 59.35L5.14095 62.2808C7.82099 62.8236 10.0537 63.2026 11.8278 63.4113L12.1772 60.4415ZM6.82704 61.368L10.3619 52.4803L7.5833 51.3752L4.04845 60.2628L6.82704 61.368ZM73.7242 28.9008L72.8732 30.1301V30.1301L73.7242 28.9008ZM74.3302 39.0508L75.7243 39.5914L75.7277 39.5823L74.3302 39.0508ZM72.4113 43.9996L73.8003 44.553L73.8053 44.5402L72.4113 43.9996ZM66.301 52.8872L65.4147 51.6831L65.4067 51.6891L66.301 52.8872ZM49.6368 55.5636V54.0685H48.6118L48.2422 55.0246L49.6368 55.5636ZM47.3139 61.5729V63.068H48.3389L48.7084 62.112L47.3139 61.5729ZM33.9824 61.5729L32.5896 61.0294L31.7941 63.068H33.9824V61.5729ZM47.2634 27.5373V26.0422H46.2418L45.8705 26.9938L47.2634 27.5373ZM60.6453 39.9598L62.0388 40.5017L62.0521 40.4675L62.0637 40.4326L60.6453 39.9598ZM60.5948 38.3439L59.9261 39.6812V39.6812L60.5948 38.3439ZM56.454 38.1924V36.6972H55.4376L55.0637 37.6423L56.454 38.1924ZM53.6766 45.2116L52.2863 44.6615L51.4771 46.7067H53.6766V45.2116ZM58.3224 44.9086L57.5531 43.6265L57.5226 43.6448L57.493 43.6646L58.3224 44.9086ZM59.2314 43.5956L60.6196 44.1509L60.6222 44.1443L60.6248 44.1376L59.2314 43.5956ZM67.6645 29.0325C70.2794 29.0325 71.9318 29.4783 72.8732 30.1301L74.5753 27.6715C72.8908 26.5053 70.5034 26.0422 67.6645 26.0422V29.0325ZM72.8732 30.1301C73.7058 30.7065 74.1985 31.5959 74.1985 33.0921H77.1888C77.1888 30.8178 76.3685 28.9129 74.5753 27.6715L72.8732 30.1301ZM74.1985 33.0921C74.1985 34.4154 73.8119 36.2074 72.9327 38.5194L75.7277 39.5823C76.6664 37.1138 77.1888 34.9333 77.1888 33.0921H74.1985ZM72.9362 38.5103L71.0173 43.4591L73.8053 44.5402L75.7242 39.5914L72.9362 38.5103ZM71.0223 43.4463C69.4295 47.4444 67.53 50.126 65.4147 51.6832L67.1874 54.0913C69.9199 52.08 72.0938 48.8365 73.8003 44.553L71.0223 43.4463ZM65.4067 51.6891C63.3486 53.2254 60.5133 54.0685 56.757 54.0685V57.0588C60.9456 57.0588 64.4731 56.1176 67.1954 54.0854L65.4067 51.6891ZM56.757 54.0685H49.6368V57.0588H56.757V54.0685ZM48.2422 55.0246L45.9193 61.0338L48.7084 62.112L51.0313 56.1027L48.2422 55.0246ZM47.3139 60.0777H33.9824V63.068H47.3139V60.0777ZM35.3753 62.1164L48.6562 28.0808L45.8705 26.9938L32.5896 61.0294L35.3753 62.1164ZM47.2634 29.0325H67.6645V26.0422H47.2634V29.0325ZM62.0637 40.4326C62.2259 39.946 62.3929 39.376 62.3929 38.8993H59.4026C59.4026 38.8523 59.407 38.8336 59.4037 38.8553C59.4009 38.8738 59.3942 38.9107 59.3802 38.9696C59.3517 39.0891 59.3029 39.2589 59.2269 39.487L62.0637 40.4326ZM62.3929 38.8993C62.3929 38.5822 62.3336 38.2073 62.1346 37.8425C61.9274 37.4626 61.6171 37.1834 61.2634 37.0066L59.9261 39.6812C59.7745 39.6053 59.6157 39.4692 59.5095 39.2744C59.4115 39.0948 59.4026 38.9472 59.4026 38.8993H62.3929ZM61.2634 37.0066C60.7381 36.7439 60.1266 36.6972 59.6353 36.6972V39.6875C59.8013 39.6875 59.9089 39.6974 59.9702 39.7071C59.9995 39.7117 60.0095 39.715 60.0043 39.7134C59.9997 39.7121 59.9707 39.7035 59.9261 39.6812L61.2634 37.0066ZM59.6353 36.6972H56.454V39.6875H59.6353V36.6972ZM55.0637 37.6423L52.2863 44.6615L55.0669 45.7617L57.8442 38.7425L55.0637 37.6423ZM53.6766 46.7067H56.9085V43.7164H53.6766V46.7067ZM56.9085 46.7067C57.6471 46.7067 58.4793 46.6009 59.1517 46.1526L57.493 43.6646C57.54 43.6332 57.5362 43.6508 57.4284 43.6739C57.3228 43.6965 57.1549 43.7164 56.9085 43.7164V46.7067ZM59.0916 46.1907C59.8617 45.7286 60.3184 44.9039 60.6196 44.1509L57.8431 43.0404C57.7363 43.3075 57.6421 43.4777 57.5728 43.5778C57.5017 43.6806 57.4866 43.6664 57.5531 43.6265L59.0916 46.1907ZM60.6248 44.1376L62.0388 40.5017L59.2518 39.4179L57.8379 43.0537L60.6248 44.1376ZM75.4277 41.5252L74.0387 40.9719L74.034 40.9839L75.4277 41.5252ZM86.4363 28.0423L85.986 26.6166L85.9806 26.6183L86.4363 28.0423ZM104.515 27.4363L104.19 28.8959L104.196 28.8971L104.515 27.4363ZM108.554 29.4058L107.457 30.4216L107.477 30.4427L107.497 30.463L108.554 29.4058ZM107.746 41.5252L109.14 42.0666L109.142 42.0628L107.746 41.5252ZM105.373 47.6355L106.764 48.185L106.767 48.1768L105.373 47.6355ZM100.424 56.9271L99.2661 55.9813L99.2614 55.9872L99.2567 55.9931L100.424 56.9271ZM94.2129 61.1184L93.7746 59.6889L93.7692 59.6906L94.2129 61.1184ZM76.1852 61.7244L75.8868 63.1894L75.892 63.1905L76.1852 61.7244ZM72.1454 59.8559L71.0684 60.893L71.0782 60.9032L71.0882 60.9132L72.1454 59.8559ZM73.0544 47.6355L74.4408 48.1951L74.4445 48.186L74.448 48.1768L73.0544 47.6355ZM85.9818 48.6959L87.356 49.2849L87.3648 49.2645L87.3729 49.2439L85.9818 48.6959ZM86.0323 51.1198L85.3636 52.4571L85.4193 52.4849L85.477 52.508L86.0323 51.1198ZM89.6681 51.1198L90.1078 52.5489L90.1569 52.5337L90.2049 52.5153L89.6681 51.1198ZM90.6781 50.3624L89.4689 49.483L89.461 49.4939L89.4532 49.5049L90.6781 50.3624ZM91.5366 48.6959L92.9204 49.262L92.9241 49.253L92.9277 49.2439L91.5366 48.6959ZM94.8189 40.3638L93.4447 39.7748L93.4359 39.7952L93.4278 39.8158L94.8189 40.3638ZM94.7684 38.0409L94.0998 39.3782L94.1554 39.406L94.2131 39.4291L94.7684 38.0409ZM91.0821 38.0409L91.5218 39.4699L91.5709 39.4548L91.6188 39.4364L91.0821 38.0409ZM89.2642 40.3638L87.8803 39.7977L87.8766 39.8067L87.8731 39.8158L89.2642 40.3638ZM76.8167 42.0786C78.4463 37.988 79.9997 35.0608 81.4526 33.2061L79.0985 31.3621C77.3868 33.5473 75.7084 36.7808 74.0388 40.9719L76.8167 42.0786ZM81.4526 33.2061C82.8437 31.4302 84.6423 30.1862 86.892 29.4663L85.9806 26.6183C83.1804 27.5143 80.8719 29.0982 79.0985 31.3621L81.4526 33.2061ZM86.8865 29.4681C89.2314 28.7276 92.6399 28.3255 97.1923 28.3255V25.3352C92.5204 25.3352 88.7582 25.7411 85.986 26.6166L86.8865 29.4681ZM97.1923 28.3255C100.207 28.3255 102.525 28.5258 104.19 28.8959L104.839 25.9768C102.868 25.5389 100.305 25.3352 97.1923 25.3352V28.3255ZM104.196 28.8971C105.897 29.2682 106.907 29.8272 107.457 30.4216L109.651 28.3899C108.518 27.1663 106.836 26.4124 104.833 25.9756L104.196 28.8971ZM107.497 30.463C108.02 30.9855 108.372 31.7907 108.372 33.0921H111.362C111.362 31.229 110.84 29.5766 109.612 28.3485L107.497 30.463ZM108.372 33.0921C108.372 34.7555 107.752 37.3516 106.351 40.9876L109.142 42.0628C110.568 38.3598 111.362 35.3338 111.362 33.0921H108.372ZM106.353 40.9839L103.979 47.0941L106.767 48.1768L109.14 42.0666L106.353 40.9839ZM103.982 47.086C102.355 51.2047 100.773 54.1366 99.2661 55.9813L101.582 57.8728C103.375 55.6778 105.092 52.4152 106.763 48.1849L103.982 47.086ZM99.2567 55.9931C97.8326 57.7731 96.0186 59.0008 93.7746 59.689L94.6513 62.5478C97.4571 61.6874 99.7839 60.1209 101.592 57.8611L99.2567 55.9931ZM93.7692 59.6906C91.4914 60.3986 88.1162 60.7847 83.5579 60.7847V63.775C88.2239 63.775 91.952 63.3868 94.6567 62.5462L93.7692 59.6906ZM83.5579 60.7847C80.5402 60.7847 78.1928 60.6011 76.4784 60.2583L75.892 63.1905C77.8808 63.5882 80.4486 63.775 83.5579 63.775V60.7847ZM76.4837 60.2593C74.8187 59.9202 73.791 59.3871 73.2026 58.7987L71.0882 60.9132C72.2503 62.0754 73.9159 62.7879 75.8868 63.1894L76.4837 60.2593ZM73.2224 58.8189C72.6735 58.2489 72.3276 57.4243 72.3276 56.1696H69.3373C69.3373 58.0121 69.8667 59.6451 71.0684 60.893L73.2224 58.8189ZM72.3276 56.1696C72.3276 54.4484 72.9758 51.8243 74.4408 48.1951L71.6679 47.0758C70.1703 50.7857 69.3373 53.851 69.3373 56.1696H72.3276ZM74.448 48.1768L76.8214 42.0666L74.034 40.9839L71.6606 47.0941L74.448 48.1768ZM84.6075 48.107C84.2839 48.8622 84.0322 49.6463 84.0322 50.3624H87.0225C87.0225 50.2704 87.0738 49.9436 87.356 49.2849L84.6075 48.107ZM84.0322 50.3624C84.0322 50.7923 84.144 51.2352 84.4095 51.6336C84.6689 52.0226 85.0179 52.2843 85.3636 52.4571L86.7009 49.7825C86.71 49.787 86.8066 49.8383 86.8976 49.9749C86.9948 50.1207 87.0225 50.2691 87.0225 50.3624H84.0322ZM85.477 52.508C86.1019 52.758 86.9276 52.817 87.7492 52.817V49.8267C87.3824 49.8267 87.0991 49.8112 86.8887 49.7864C86.6661 49.7602 86.584 49.7302 86.5876 49.7316L85.477 52.508ZM87.7492 52.817C88.6373 52.817 89.4549 52.7498 90.1078 52.5489L89.2284 49.6908C89.0061 49.7592 88.5444 49.8267 87.7492 49.8267V52.817ZM90.2049 52.5153C90.8799 52.2557 91.4734 51.8335 91.903 51.2198L89.4532 49.5049C89.4115 49.5645 89.3317 49.6473 89.1314 49.7243L90.2049 52.5153ZM91.8873 51.2418C92.2607 50.7283 92.6003 50.0444 92.9204 49.262L90.1527 48.1298C89.8668 48.8288 89.6341 49.2558 89.4689 49.483L91.8873 51.2418ZM92.9277 49.2439L96.21 40.9118L93.4278 39.8158L90.1455 48.1479L92.9277 49.2439ZM96.1932 40.9528C96.5084 40.2171 96.7685 39.441 96.7685 38.7479H93.7783C93.7783 38.7454 93.776 38.8273 93.7205 39.0248C93.6675 39.2131 93.5792 39.4608 93.4447 39.7748L96.1932 40.9528ZM96.7685 38.7479C96.7685 38.3202 96.6573 37.8605 96.3638 37.4496C96.076 37.0467 95.6909 36.7995 95.3237 36.6527L94.2131 39.4291C94.1826 39.4169 94.0499 39.3549 93.9305 39.1877C93.8054 39.0124 93.7783 38.8389 93.7783 38.7479H96.7685ZM95.4371 36.7036C94.7596 36.3649 93.8557 36.2932 93.001 36.2932V39.2835C93.3775 39.2835 93.6601 39.3027 93.8626 39.3316C94.0793 39.3626 94.1337 39.3952 94.0998 39.3782L95.4371 36.7036ZM93.001 36.2932C92.098 36.2932 91.2399 36.3783 90.5453 36.6454L91.6188 39.4364C91.7996 39.3668 92.2207 39.2835 93.001 39.2835V36.2932ZM90.6424 36.6119C89.9251 36.8326 89.2956 37.25 88.8473 37.8904L91.297 39.6053C91.32 39.5724 91.3638 39.5185 91.5218 39.4699L90.6424 36.6119ZM88.8473 37.8904C88.5133 38.3675 88.1937 39.0316 87.8803 39.7977L90.648 40.9299C90.9406 40.2147 91.1596 39.8015 91.297 39.6053L88.8473 37.8904ZM87.8731 39.8158L84.5907 48.1479L87.3729 49.2439L90.6553 40.9118L87.8731 39.8158ZM140.798 27.5373L142.191 28.0805L142.986 26.0422H140.798V27.5373ZM136.506 38.5459V40.041H137.528L137.899 39.089L136.506 38.5459ZM130.093 38.5459V37.0507H129.074L128.701 37.9995L130.093 38.5459ZM121.054 61.5729V63.068H122.073L122.445 62.1192L121.054 61.5729ZM107.924 61.5729L106.531 61.0292L105.736 63.068H107.924V61.5729ZM116.913 38.5459L118.306 39.0895L119.102 37.0507H116.913V38.5459ZM110.5 38.5459L109.107 38.0027L108.312 40.041H110.5V38.5459ZM114.792 27.5373V26.0422H113.77L113.399 26.9942L114.792 27.5373ZM139.405 26.9942L135.113 38.0027L137.899 39.089L142.191 28.0805L139.405 26.9942ZM136.506 37.0507H130.093V40.041H136.506V37.0507ZM128.701 37.9995L119.662 61.0266L122.445 62.1192L131.485 39.0922L128.701 37.9995ZM121.054 60.0777H107.924V63.068H121.054V60.0777ZM109.317 62.1166L118.306 39.0895L115.52 38.0022L106.531 61.0292L109.317 62.1166ZM116.913 37.0507H110.5V40.041H116.913V37.0507ZM111.893 39.089L116.185 28.0805L113.399 26.9942L109.107 38.0027L111.893 39.089ZM114.792 29.0325H140.798V26.0422H114.792V29.0325ZM143.426 27.5373V26.0422H142.405L142.033 26.9938L143.426 27.5373ZM156.657 27.5373L158.05 28.0808L158.845 26.0422H156.657V27.5373ZM143.376 61.5729V63.068H144.397L144.769 62.1164L143.376 61.5729ZM130.145 61.5729L128.752 61.0294L127.957 63.068H130.145V61.5729ZM143.426 29.0325H156.657V26.0422H143.426V29.0325ZM155.264 26.9938L141.983 61.0294L144.769 62.1164L158.05 28.0808L155.264 26.9938ZM143.376 60.0777H130.145V63.068H143.376V60.0777ZM131.538 62.1164L144.819 28.0808L142.033 26.9938L128.752 61.0294L131.538 62.1164ZM165.132 48.9484L166.51 49.5286L166.518 49.5097L166.526 49.4906L165.132 48.9484ZM165.183 51.1198L164.576 52.4861L164.601 52.4976L164.628 52.508L165.183 51.1198ZM168.97 50.8168L168.059 49.6317V49.6317L168.97 50.8168ZM170.182 48.8979L171.574 49.4446L171.575 49.4413L170.182 48.8979ZM178.514 27.5373V26.0422H177.493L177.121 26.994L178.514 27.5373ZM191.745 27.5373L193.139 28.0779L193.928 26.0422H191.745V27.5373ZM183.716 48.2414L185.107 48.7885L185.11 48.782L183.716 48.2414ZM179.07 57.0786L177.898 56.1495L177.896 56.1521L179.07 57.0786ZM173.061 61.1184L173.504 62.5462L173.061 61.1184ZM151.296 60.0579L150.239 61.1152L150.25 61.126L150.261 61.1365L151.296 60.0579ZM152.255 48.2414L153.647 48.7882L153.648 48.785L152.255 48.2414ZM160.335 27.5373V26.0422H159.314L158.942 26.9938L160.335 27.5373ZM173.465 27.5373L174.858 28.0796L175.651 26.0422H173.465V27.5373ZM163.754 48.3682C163.472 49.0379 163.233 49.7595 163.233 50.4129H166.224C166.224 50.4282 166.223 50.3646 166.271 50.1919C166.316 50.0279 166.392 49.8091 166.51 49.5286L163.754 48.3682ZM163.233 50.4129C163.233 50.8094 163.325 51.2468 163.584 51.6506C163.845 52.056 164.207 52.3224 164.576 52.4861L165.79 49.7535C165.855 49.7826 165.991 49.8639 166.1 50.0336C166.208 50.2018 166.224 50.3529 166.224 50.4129H163.233ZM164.628 52.508C165.244 52.7545 166.025 52.817 166.799 52.817V49.8267C166.47 49.8267 166.215 49.8115 166.025 49.7877C165.931 49.776 165.86 49.763 165.809 49.7513C165.758 49.7394 165.737 49.731 165.738 49.7316L164.628 52.508ZM166.799 52.817C167.899 52.817 169.042 52.6484 169.882 52.0019L168.059 49.6317C168.059 49.6312 168.041 49.6454 167.992 49.6666C167.943 49.688 167.868 49.7143 167.76 49.7393C167.541 49.7903 167.228 49.8267 166.799 49.8267V52.817ZM169.882 52.0019C170.648 51.4125 171.175 50.4601 171.574 49.4446L168.791 48.3512C168.449 49.221 168.168 49.5479 168.059 49.6317L169.882 52.0019ZM171.575 49.4413L179.907 28.0807L177.121 26.994L168.789 48.3546L171.575 49.4413ZM178.514 29.0325H191.745V26.0422H178.514V29.0325ZM190.351 26.9967L182.322 47.7008L185.11 48.782L193.139 28.0779L190.351 26.9967ZM182.324 47.6944C180.798 51.5774 179.313 54.3657 177.898 56.1495L180.241 58.0076C181.924 55.8863 183.537 52.7832 185.107 48.7885L182.324 47.6944ZM177.896 56.1521C176.581 57.8179 174.84 58.9996 172.617 59.6906L173.504 62.5462C176.263 61.6886 178.529 60.1771 180.243 58.005L177.896 56.1521ZM172.617 59.6906C170.338 60.3988 166.979 60.7847 162.456 60.7847V63.775C167.09 63.775 170.8 63.3866 173.504 62.5462L172.617 59.6906ZM162.456 60.7847C159.466 60.7847 157.165 60.6174 155.512 60.3056L154.958 63.2441C156.874 63.6056 159.386 63.775 162.456 63.775V60.7847ZM155.512 60.3056C153.867 59.9952 152.877 59.5033 152.331 58.9794L150.261 61.1365C151.398 62.2285 153.035 62.8812 154.958 63.2441L155.512 60.3056ZM152.353 59.0007C151.851 58.4981 151.529 57.7665 151.529 56.6241H148.538C148.538 58.3769 149.058 59.9345 150.239 61.1152L152.353 59.0007ZM151.529 56.6241C151.529 55.1114 152.171 52.546 153.647 48.7882L150.864 47.6947C149.378 51.4779 148.538 54.5009 148.538 56.6241H151.529ZM153.648 48.785L161.728 28.0809L158.942 26.9938L150.863 47.6979L153.648 48.785ZM160.335 29.0325H173.465V26.0422H160.335V29.0325ZM172.071 26.9951L163.739 48.4062L166.526 49.4906L174.858 28.0796L172.071 26.9951ZM220.145 27.5373L221.538 28.0805L222.333 26.0422H220.145V27.5373ZM215.853 38.5459V40.041H216.875L217.246 39.089L215.853 38.5459ZM209.44 38.5459V37.0507H208.42L208.048 37.9995L209.44 38.5459ZM200.4 61.5729V63.068H201.42L201.792 62.1192L200.4 61.5729ZM187.271 61.5729L185.878 61.0292L185.082 63.068H187.271V61.5729ZM196.26 38.5459L197.652 39.0895L198.448 37.0507H196.26V38.5459ZM189.846 38.5459L188.453 38.0027L187.659 40.041H189.846V38.5459ZM194.139 27.5373V26.0422H193.117L192.746 26.9942L194.139 27.5373ZM218.752 26.9942L214.46 38.0027L217.246 39.089L221.538 28.0805L218.752 26.9942ZM215.853 37.0507H209.44V40.041H215.853V37.0507ZM208.048 37.9995L199.009 61.0266L201.792 62.1192L210.831 39.0922L208.048 37.9995ZM200.4 60.0777H187.271V63.068H200.4V60.0777ZM188.664 62.1166L197.652 39.0895L194.867 38.0022L185.878 61.0292L188.664 62.1166ZM196.26 37.0507H189.846V40.041H196.26V37.0507ZM191.239 39.089L195.532 28.0805L192.746 26.9942L188.453 38.0027L191.239 39.089ZM194.139 29.0325H220.145V26.0422H194.139V29.0325ZM227.809 41.5252L226.42 40.9719L226.415 40.9839L227.809 41.5252ZM238.817 28.0423L238.367 26.6166L238.362 26.6183L238.817 28.0423ZM256.896 27.4363L256.571 28.8959L256.577 28.8971L256.896 27.4363ZM260.936 29.4058L259.838 30.4216L259.858 30.4427L259.878 30.463L260.936 29.4058ZM260.128 41.5252L261.521 42.0666L261.523 42.0628L260.128 41.5252ZM257.754 47.6355L259.145 48.185L259.148 48.1768L257.754 47.6355ZM252.805 56.9271L251.647 55.9813L251.643 55.9872L251.638 55.9931L252.805 56.9271ZM246.594 61.1184L246.156 59.6889L246.15 59.6906L246.594 61.1184ZM228.566 61.7244L228.268 63.1894L228.273 63.1905L228.566 61.7244ZM224.527 59.8559L223.45 60.893L223.459 60.9032L223.469 60.9132L224.527 59.8559ZM225.436 47.6355L226.822 48.1951L226.826 48.186L226.829 48.1768L225.436 47.6355ZM238.363 48.6959L239.737 49.2849L239.746 49.2645L239.754 49.2439L238.363 48.6959ZM238.413 51.1198L237.745 52.4571L237.8 52.4849L237.858 52.508L238.413 51.1198ZM242.049 51.1198L242.489 52.5489L242.538 52.5337L242.586 52.5153L242.049 51.1198ZM243.059 50.3624L241.85 49.483L241.842 49.4939L241.834 49.5049L243.059 50.3624ZM243.918 48.6959L245.302 49.262L245.305 49.253L245.309 49.2439L243.918 48.6959ZM247.2 40.3638L245.826 39.7748L245.817 39.7952L245.809 39.8158L247.2 40.3638ZM247.15 38.0409L246.481 39.3782L246.537 39.406L246.594 39.4291L247.15 38.0409ZM243.463 38.0409L243.903 39.4699L243.952 39.4548L244 39.4364L243.463 38.0409ZM241.645 40.3638L240.261 39.7977L240.258 39.8067L240.254 39.8158L241.645 40.3638ZM229.198 42.0786C230.827 37.988 232.381 35.0608 233.834 33.2061L231.48 31.3621C229.768 33.5473 228.09 36.7808 226.42 40.9719L229.198 42.0786ZM233.834 33.2061C235.225 31.4302 237.023 30.1862 239.273 29.4663L238.362 26.6183C235.562 27.5143 233.253 29.0982 231.48 31.3621L233.834 33.2061ZM239.268 29.4681C241.613 28.7276 245.021 28.3255 249.573 28.3255V25.3352C244.902 25.3352 241.139 25.7411 238.367 26.6166L239.268 29.4681ZM249.573 28.3255C252.588 28.3255 254.906 28.5258 256.571 28.8959L257.22 25.9768C255.25 25.5389 252.686 25.3352 249.573 25.3352V28.3255ZM256.577 28.8971C258.278 29.2682 259.288 29.8272 259.838 30.4216L262.033 28.3899C260.9 27.1663 259.217 26.4124 257.214 25.9756L256.577 28.8971ZM259.878 30.463C260.401 30.9855 260.753 31.7907 260.753 33.0921H263.744C263.744 31.229 263.221 29.5766 261.993 28.3485L259.878 30.463ZM260.753 33.0921C260.753 34.7555 260.133 37.3516 258.732 40.9876L261.523 42.0628C262.95 38.3598 263.744 35.3338 263.744 33.0921H260.753ZM258.734 40.9839L256.36 47.0941L259.148 48.1768L261.521 42.0666L258.734 40.9839ZM256.364 47.086C254.736 51.2047 253.154 54.1366 251.647 55.9813L253.963 57.8728C255.756 55.6778 257.473 52.4152 259.145 48.1849L256.364 47.086ZM251.638 55.9931C250.214 57.7731 248.4 59.0008 246.156 59.689L247.032 62.5478C249.838 61.6874 252.165 60.1209 253.973 57.8611L251.638 55.9931ZM246.15 59.6906C243.873 60.3986 240.497 60.7847 235.939 60.7847V63.775C240.605 63.775 244.333 63.3868 247.038 62.5462L246.15 59.6906ZM235.939 60.7847C232.921 60.7847 230.574 60.6011 228.86 60.2583L228.273 63.1905C230.262 63.5882 232.83 63.775 235.939 63.775V60.7847ZM228.865 60.2593C227.2 59.9202 226.172 59.3871 225.584 58.7987L223.469 60.9132C224.632 62.0754 226.297 62.7879 228.268 63.1894L228.865 60.2593ZM225.604 58.8189C225.055 58.2489 224.709 57.4243 224.709 56.1696H221.718C221.718 58.0121 222.248 59.6451 223.45 60.893L225.604 58.8189ZM224.709 56.1696C224.709 54.4484 225.357 51.8243 226.822 48.1951L224.049 47.0758C222.551 50.7857 221.718 53.851 221.718 56.1696H224.709ZM226.829 48.1768L229.203 42.0666L226.415 40.9839L224.042 47.0941L226.829 48.1768ZM236.989 48.107C236.665 48.8622 236.413 49.6463 236.413 50.3624H239.404C239.404 50.2704 239.455 49.9436 239.737 49.2849L236.989 48.107ZM236.413 50.3624C236.413 50.7923 236.525 51.2352 236.791 51.6336C237.05 52.0226 237.399 52.2843 237.745 52.4571L239.082 49.7825C239.091 49.787 239.188 49.8383 239.279 49.9749C239.376 50.1207 239.404 50.2691 239.404 50.3624H236.413ZM237.858 52.508C238.483 52.758 239.309 52.817 240.13 52.817V49.8267C239.764 49.8267 239.48 49.8112 239.27 49.7864C239.047 49.7602 238.965 49.7302 238.969 49.7316L237.858 52.508ZM240.13 52.817C241.018 52.817 241.836 52.7498 242.489 52.5489L241.61 49.6908C241.387 49.7592 240.926 49.8267 240.13 49.8267V52.817ZM242.586 52.5153C243.261 52.2557 243.855 51.8335 244.284 51.2198L241.834 49.5049C241.793 49.5645 241.713 49.6473 241.513 49.7243L242.586 52.5153ZM244.268 51.2418C244.642 50.7283 244.982 50.0444 245.302 49.262L242.534 48.1298C242.248 48.8288 242.015 49.2558 241.85 49.483L244.268 51.2418ZM245.309 49.2439L248.591 40.9118L245.809 39.8158L242.527 48.1479L245.309 49.2439ZM248.574 40.9528C248.89 40.2171 249.15 39.441 249.15 38.7479H246.159C246.159 38.7454 246.157 38.8273 246.102 39.0248C246.049 39.2131 245.96 39.4608 245.826 39.7748L248.574 40.9528ZM249.15 38.7479C249.15 38.3202 249.038 37.8605 248.745 37.4496C248.457 37.0467 248.072 36.7995 247.705 36.6527L246.594 39.4291C246.564 39.4169 246.431 39.3549 246.312 39.1877C246.187 39.0124 246.159 38.8389 246.159 38.7479H249.15ZM247.818 36.7036C247.141 36.3649 246.237 36.2932 245.382 36.2932V39.2835C245.759 39.2835 246.041 39.3027 246.244 39.3316C246.46 39.3626 246.515 39.3952 246.481 39.3782L247.818 36.7036ZM245.382 36.2932C244.479 36.2932 243.621 36.3783 242.927 36.6454L244 39.4364C244.181 39.3668 244.602 39.2835 245.382 39.2835V36.2932ZM243.024 36.6119C242.306 36.8326 241.677 37.25 241.228 37.8904L243.678 39.6053C243.701 39.5724 243.745 39.5185 243.903 39.4699L243.024 36.6119ZM241.228 37.8904C240.895 38.3675 240.575 39.0316 240.261 39.7977L243.029 40.9299C243.322 40.2147 243.541 39.8015 243.678 39.6053L241.228 37.8904ZM240.254 39.8158L236.972 48.1479L239.754 49.2439L243.036 40.9118L240.254 39.8158Z" fill="#E2FF08" mask="url(#path-10-inside-1_73_643)"/>
<path d="M243.475 32.2529C239.702 30.3 237.251 28.7975 235.684 27.1898C237.127 25.8419 239.198 24.3471 242.095 22.3928L240.734 19.7531C237.591 20.9304 235.23 21.7344 233.329 22.1453C233.161 20.714 233.215 18.9783 233.494 16.7776C233.868 13.8375 234.626 10.1893 235.696 5.49065L232.858 4.58371C231.016 9.00727 229.524 12.4062 228.129 15.0129C227.09 16.9547 226.135 18.397 225.177 19.4687C223.89 18.0379 222.457 16.0435 220.623 13.324L217.983 14.6848C219.195 17.9163 220.01 20.3189 220.409 22.2437C218.185 22.6738 215.287 22.4775 210.993 21.8694L210.993 21.8694L210.981 21.8678C209.231 21.6342 208.249 24.0961 210 24.9915C213.816 26.9672 216.281 28.4827 217.846 30.1091C216.406 31.4301 214.369 32.8954 211.555 34.7924L212.915 37.4324C215.963 36.2917 218.273 35.502 220.146 35.0805C220.315 36.5094 220.263 38.2429 219.985 40.4414C219.613 43.386 218.853 47.0419 217.779 51.753L220.617 52.6601C222.485 48.1747 223.992 44.7431 225.403 42.1237C226.461 40.1583 227.433 38.7134 228.41 37.6508C229.712 39.0854 231.159 41.1002 233.023 43.8636L235.663 42.5036C234.459 39.2863 233.645 36.8924 233.242 34.9713C235.445 34.5842 238.304 34.7841 242.478 35.3767L242.485 35.3778C243.392 35.5016 244.079 34.9062 244.295 34.2441C244.509 33.5863 244.31 32.6807 243.475 32.2529ZM211.371 22.3337C211.374 22.3352 211.377 22.3367 211.379 22.3381C211.377 22.3367 211.374 22.3352 211.371 22.3337Z" fill="#E2FF08" stroke="black" stroke-width="2.99029"/>
</svg>
