<svg width="29" height="29" viewBox="0 0 29 29" fill="none" xmlns="http://www.w3.org/2000/svg">
<path d="M5.75 14.5C5.75 11.2613 7.50962 8.43351 10.125 6.92059M23.25 14.2123C23.25 17.451 21.4904 20.2788 18.875 21.7917M27.625 14.5C27.625 21.7487 21.7487 27.625 14.5 27.625C7.25126 27.625 1.375 21.7487 1.375 14.5C1.375 7.25126 7.25126 1.375 14.5 1.375C21.7487 1.375 27.625 7.25126 27.625 14.5ZM17.4167 14.5C17.4167 16.1108 16.1108 17.4167 14.5 17.4167C12.8892 17.4167 11.5833 16.1108 11.5833 14.5C11.5833 12.8892 12.8892 11.5833 14.5 11.5833C16.1108 11.5833 17.4167 12.8892 17.4167 14.5Z" stroke="#FEFCE1" stroke-width="2" stroke-linecap="round" stroke-linejoin="round"/>
</svg>
