<svg width="30" height="23" viewBox="0 0 30 23" fill="none" xmlns="http://www.w3.org/2000/svg">
<path d="M23.9866 21.7082H26.1667C27.7775 21.7082 29.1809 20.3606 28.6692 18.8332C27.8893 16.5055 25.9706 15.0979 22.5977 14.6103M18.146 9.84388C18.5703 9.97801 19.0564 10.0415 19.6042 10.0415C22.0347 10.0415 23.25 8.7915 23.25 5.6665C23.25 2.5415 22.0347 1.2915 19.6042 1.2915C19.0564 1.2915 18.5703 1.355 18.146 1.48913M10.8542 14.4165C16.6277 14.4165 19.4474 16.1838 20.1527 19.7183C20.3689 20.8015 19.4379 21.7082 18.3333 21.7082H3.375C2.27043 21.7082 1.33943 20.8015 1.5556 19.7183C2.26098 16.1838 5.08064 14.4165 10.8542 14.4165ZM10.8542 10.0415C13.2847 10.0415 14.5 8.7915 14.5 5.6665C14.5 2.5415 13.2847 1.2915 10.8542 1.2915C8.42361 1.2915 7.20833 2.5415 7.20833 5.6665C7.20833 8.7915 8.42361 10.0415 10.8542 10.0415Z" stroke="#FEFCE1" stroke-width="2" stroke-linecap="round" stroke-linejoin="round"/>
</svg>
