<svg width="27" height="27" viewBox="0 0 27 27" fill="none" xmlns="http://www.w3.org/2000/svg">
<path d="M8.8125 21.8333C8.8125 24.1345 7.06361 26 4.90625 26C2.74889 26 1 24.1345 1 21.8333C1 19.5321 2.74889 17.6667 4.90625 17.6667C7.06361 17.6667 8.8125 19.5321 8.8125 21.8333ZM8.8125 21.8333V3.57439C8.8125 3.05949 9.20349 2.62875 9.71598 2.57906L24.9035 1.10633C25.4912 1.04934 26 1.51124 26 2.10166V20.1667M26 20.1667C26 22.4679 24.2511 24.3333 22.0938 24.3333C19.9364 24.3333 18.1875 22.4679 18.1875 20.1667C18.1875 17.8655 19.9364 16 22.0938 16C24.2511 16 26 17.8655 26 20.1667Z" stroke="#FEFCE1" stroke-width="2" stroke-linecap="round" stroke-linejoin="round"/>
</svg>
