<svg width="63" height="62" viewBox="0 0 63 62" fill="none" xmlns="http://www.w3.org/2000/svg">
<path d="M54.4195 30.9225C54.4195 18.2076 44.1036 7.89163 31.3886 7.89163C18.6736 7.89163 8.35767 18.2076 8.35767 30.9225C8.35767 43.6375 18.6736 53.9535 31.3886 53.9535C44.1036 53.9535 54.4195 43.6375 54.4195 30.9225Z" stroke="#E2FF08" stroke-width="3.83849" stroke-miterlimit="10"/>
<path d="M26.6288 40.3316L40.3574 32.0381C40.5487 31.9215 40.7069 31.7577 40.8166 31.5623C40.9264 31.3669 40.984 31.1466 40.984 30.9225C40.984 30.6985 40.9264 30.4782 40.8166 30.2828C40.7069 30.0874 40.5487 29.9236 40.3574 29.807L26.6288 21.5135C26.432 21.3956 26.2074 21.3321 25.978 21.3297C25.7487 21.3272 25.5227 21.3859 25.3235 21.4995C25.1242 21.6132 24.9588 21.7778 24.8442 21.9765C24.7295 22.1752 24.6698 22.4008 24.6712 22.6302V39.2149C24.6698 39.4443 24.7295 39.6699 24.8442 39.8686C24.9588 40.0673 25.1242 40.2319 25.3235 40.3456C25.5227 40.4592 25.7487 40.5178 25.978 40.5154C26.2074 40.513 26.432 40.4495 26.6288 40.3316Z" fill="#E2FF08"/>
</svg>
