<svg width="67" height="67" viewBox="0 0 67 67" fill="none" xmlns="http://www.w3.org/2000/svg">
<circle cx="33.5" cy="33.5" r="33.5" fill="#FEFCE1"/>
<path d="M25.959 47.7221L46.7102 35.1862C46.9995 35.01 47.2385 34.7623 47.4044 34.467C47.5703 34.1717 47.6574 33.8387 47.6574 33.5C47.6574 33.1613 47.5703 32.8283 47.4044 32.533C47.2385 32.2377 46.9995 31.99 46.7102 31.8138L25.959 19.2779C25.6616 19.0997 25.3221 19.0038 24.9754 19.0001C24.6287 18.9964 24.2872 19.085 23.9861 19.2568C23.6849 19.4286 23.4348 19.6775 23.2616 19.9778C23.0883 20.2781 22.998 20.6192 23 20.9659V46.0341C22.998 46.3808 23.0883 46.7219 23.2616 47.0222C23.4348 47.3225 23.6849 47.5714 23.9861 47.7432C24.2872 47.915 24.6287 48.0036 24.9754 47.9999C25.3221 47.9962 25.6616 47.9003 25.959 47.7221Z" fill="#0E100F"/>
</svg>
