<svg width="40" height="40" viewBox="0 0 40 40" fill="none" xmlns="http://www.w3.org/2000/svg">
<path d="M19.9003 20.0383L15.5664 4.7607C15.8124 -1.79713 24.7622 -1.37314 24.5722 4.7607L19.9003 20.0383Z" fill="#E2FF08"/>
<path d="M15.4264 34.7759C15.8884 41.9518 24.5762 41.5278 24.5302 34.7759L19.9003 20.0383L15.4244 34.7759H15.4264Z" fill="#E2FF08"/>
<path d="M19.9563 20.0984L6.08871 12.3606C1.62482 7.54875 8.25265 1.52091 12.4565 5.9928L19.9563 20.0984Z" fill="#E2FF08"/>
<path d="M27.2142 33.684C32.616 38.4299 38.4579 31.9881 33.652 27.2462L19.9584 20.0984L27.2142 33.684Z" fill="#E2FF08"/>
<path d="M20.0383 20.1004L4.7607 24.4343C-1.79713 24.1883 -1.37314 15.2385 4.7607 15.4285L20.0383 20.1004Z" fill="#E2FF08"/>
<path d="M34.7759 24.5742C41.9518 24.1122 41.5278 15.4244 34.7759 15.4704L20.0383 20.1003L34.7759 24.5762V24.5742Z" fill="#E2FF08"/>
<path d="M20.0983 20.0442L12.3605 33.9118C7.54863 38.3757 1.52079 31.7479 5.99267 27.544L20.0983 20.0442Z" fill="#E2FF08"/>
<path d="M33.6839 12.7864C38.4298 7.38456 31.988 1.54271 27.2461 6.34859L20.0983 20.0422L33.6839 12.7864Z" fill="#E2FF08"/>
</svg>
