<svg width="40" height="40" viewBox="0 0 40 40" fill="none" xmlns="http://www.w3.org/2000/svg">
<path d="M30.0295 19.9699C29.8853 19.9699 29.7411 19.9739 29.5989 19.9799V19.9599C29.7411 19.9659 29.8853 19.9699 30.0295 19.9699C35.5355 19.9699 40 15.501 40 9.98496C40 4.46896 35.5355 0 30.0295 0C24.5236 0 20.0591 4.47096 20.0591 9.98496C20.0591 10.1875 20.0651 10.3881 20.0771 10.5867H19.9229C19.9349 10.3881 19.9409 10.1875 19.9409 9.98496C19.9409 4.47096 15.4764 0 9.97046 0C4.46447 0 0 4.47096 0 9.98496C0 15.4989 4.46447 19.9699 9.97046 19.9699C4.47449 20.002 0.0300439 24.475 0.0300439 29.985C0.0300439 35.4949 4.50653 40 10.0285 40C15.5505 40 20.029 35.515 20.029 29.985C20.029 29.8084 20.025 29.6319 20.017 29.4574H20.0711C20.0631 29.6219 20.0591 29.7884 20.0591 29.9549C20.0591 35.4709 24.5216 39.9398 30.0295 39.9398C35.5375 39.9398 40 35.4709 40 29.9549C40 24.4389 35.5355 19.9699 30.0295 19.9699Z" fill="#E2FF08"/>
</svg>
