<svg width="26" height="26" viewBox="0 0 26 26" fill="none" xmlns="http://www.w3.org/2000/svg">
<path d="M20.4649 21.2331C19.8213 18.3267 17.3953 16.614 12.9914 16.614C8.5875 16.614 6.16126 18.3267 5.51757 21.2331M12.9913 24.0877C19.1827 24.0877 24.2018 19.0686 24.2018 12.8772C24.2018 6.68575 19.1827 1.66663 12.9913 1.66663C6.79985 1.66663 1.78073 6.68575 1.78073 12.8772C1.78073 19.0686 6.79985 24.0877 12.9913 24.0877ZM12.9913 12.8772C14.6521 12.8772 15.4825 11.9874 15.4825 9.76312C15.4825 7.53881 14.6521 6.64908 12.9913 6.64908C11.3304 6.64908 10.5 7.53881 10.5 9.76312C10.5 11.9874 11.3304 12.8772 12.9913 12.8772Z" stroke="#FEFCE1" stroke-width="2" stroke-linecap="round" stroke-linejoin="round"/>
</svg>
