<svg width="30" height="26" viewBox="0 0 30 26" fill="none" xmlns="http://www.w3.org/2000/svg">
<path d="M25.625 24.6875L2.25 1.3125" stroke="#FEFCE1" stroke-width="2.125" stroke-miterlimit="10" stroke-linecap="round"/>
<path d="M12.875 5.09239V7.33692C12.8751 7.40716 12.9031 7.47449 12.9527 7.52419L14.5464 9.11794C14.5836 9.15509 14.6308 9.18041 14.6823 9.1907C14.7338 9.20098 14.7872 9.19578 14.8357 9.17574C14.8843 9.1557 14.9258 9.12173 14.955 9.07811C14.9843 9.03449 14.9999 8.98318 15 8.93067V4.00665C15.003 3.71269 14.9263 3.4234 14.7782 3.16947C14.6301 2.91554 14.416 2.70643 14.1586 2.56431C13.8934 2.42155 13.5931 2.35717 13.2926 2.37869C12.9922 2.40021 12.7041 2.50673 12.462 2.68583C12.4468 2.69637 12.4322 2.70768 12.4181 2.7197L10.2971 4.45622C10.2685 4.47975 10.245 4.50901 10.2284 4.54213C10.2117 4.57525 10.2022 4.61149 10.2004 4.64852C10.1985 4.68554 10.2045 4.72254 10.2179 4.75713C10.2312 4.79172 10.2516 4.82313 10.2779 4.84935L11.4101 5.98224C11.4568 6.0289 11.5191 6.05652 11.585 6.05971C11.651 6.0629 11.7157 6.04144 11.7667 5.9995L12.875 5.09239ZM12.875 20.9077L7.69066 16.663C7.31006 16.3539 6.83426 16.1859 6.34395 16.1875H2.25V9.81255H5.61813C5.67063 9.81246 5.72194 9.79681 5.76556 9.76757C5.80918 9.73834 5.84315 9.69683 5.86319 9.6483C5.88323 9.59976 5.88843 9.54637 5.87815 9.49488C5.86786 9.44339 5.84254 9.3961 5.80539 9.35899L4.21164 7.76524C4.16195 7.7156 4.09461 7.68767 4.02438 7.68755H1.71875C1.29606 7.68755 0.890685 7.85546 0.591799 8.15435C0.292913 8.45323 0.125 8.85861 0.125 9.2813V16.7188C0.125 17.1415 0.292913 17.5469 0.591799 17.8457C0.890685 18.1446 1.29606 18.3125 1.71875 18.3125H6.35125L12.4181 23.2797C12.4322 23.2918 12.4468 23.3031 12.462 23.3136C12.7071 23.4951 12.9994 23.6022 13.3038 23.6221C13.6081 23.642 13.9118 23.5739 14.1786 23.4258C14.4307 23.2823 14.6398 23.0739 14.7842 22.8222C14.9287 22.5706 15.0032 22.2849 15 21.9948V18.6632C14.9999 18.5929 14.9719 18.5256 14.9223 18.4759L13.3286 16.8822C13.2914 16.845 13.2442 16.8197 13.1927 16.8094C13.1412 16.7991 13.0878 16.8043 13.0393 16.8244C12.9907 16.8444 12.9492 16.8784 12.92 16.922C12.8907 16.9656 12.8751 17.0169 12.875 17.0694V20.9077ZM21.375 13C21.375 11.3691 20.9892 9.82052 20.1963 8.26728C20.0653 8.02158 19.843 7.83715 19.5774 7.75365C19.3118 7.67015 19.024 7.69427 18.7759 7.82081C18.5279 7.94735 18.3394 8.1662 18.2511 8.43027C18.1628 8.69434 18.1817 8.98253 18.3037 9.23282C18.9405 10.4806 19.25 11.7131 19.25 13C19.25 13.1771 19.2431 13.3571 19.2294 13.5399C19.2237 13.6161 19.2346 13.6926 19.2612 13.7643C19.2877 13.8359 19.3295 13.9009 19.3835 13.955L20.689 15.2612C20.7228 15.2951 20.7652 15.3193 20.8116 15.3312C20.858 15.343 20.9068 15.3421 20.9528 15.3285C20.9987 15.3149 21.0401 15.2891 21.0726 15.2539C21.1051 15.2186 21.1274 15.1753 21.1373 15.1284C21.2944 14.4298 21.3741 13.7161 21.375 13ZM25.625 13C25.625 9.60071 24.7564 7.42923 23.3552 5.02731C23.2113 4.78785 22.9789 4.61469 22.7083 4.54534C22.4376 4.47599 22.1506 4.51602 21.9092 4.65677C21.6679 4.79752 21.4917 5.02766 21.4188 5.29736C21.3459 5.56706 21.3822 5.85462 21.5198 6.09778C22.7742 8.24802 23.5 10.0669 23.5 13C23.5 14.5825 23.2815 15.8475 22.8778 17.0276C22.8453 17.1217 22.8399 17.223 22.8623 17.3199C22.8846 17.4169 22.9337 17.5057 23.0039 17.5761L24.1176 18.6891C24.1483 18.72 24.1862 18.7428 24.2279 18.7556C24.2696 18.7683 24.3138 18.7707 24.3565 18.7623C24.3993 18.754 24.4394 18.7353 24.4732 18.7078C24.5071 18.6803 24.5336 18.6449 24.5505 18.6047C25.2325 16.9765 25.625 15.2519 25.625 13Z" fill="#FEFCE1"/>
<path d="M29.875 13.0001C29.875 8.06874 28.5343 4.9576 26.5208 1.80331C26.3692 1.56554 26.1293 1.39776 25.8539 1.33686C25.5786 1.27596 25.2903 1.32694 25.0526 1.47858C24.8148 1.63022 24.647 1.8701 24.5861 2.14545C24.5252 2.4208 24.5762 2.70906 24.7278 2.94682C26.5427 5.78702 27.75 8.58405 27.75 13.0001C27.75 16.151 27.159 18.4533 26.1835 20.504C26.1597 20.5534 26.1519 20.6091 26.1611 20.6632C26.1702 20.7173 26.1959 20.7672 26.2346 20.8061L27.418 21.9908C27.4475 22.0206 27.4838 22.0429 27.5236 22.056C27.5635 22.0691 27.6059 22.0725 27.6474 22.066C27.6889 22.0596 27.7282 22.0433 27.7622 22.0187C27.7962 21.9941 27.8239 21.9618 27.843 21.9244C29.2694 19.124 29.875 16.3868 29.875 13.0001Z" fill="#FEFCE1"/>
</svg>
