<svg width="32" height="26" viewBox="0 0 32 26" fill="none" xmlns="http://www.w3.org/2000/svg">
<path d="M20.7 17.4C21.3696 16.0676 21.8 14.5923 21.8 13C21.8 11.3858 21.3875 9.94613 20.7 8.6M24 20.7C25.3393 18.368 26.2 16.2959 26.2 13C26.2 9.70413 25.375 7.65538 24 5.3M27.3 24C29.3625 20.8375 30.6 17.7142 30.6 13C30.6 8.28581 29.3625 5.23125 27.3 2M7.3625 8.6H2.55C2.40413 8.6 2.26424 8.65795 2.16109 8.76109C2.05795 8.86424 2 9.00413 2 9.15V16.85C2 16.9959 2.05795 17.1358 2.16109 17.2389C2.26424 17.3421 2.40413 17.4 2.55 17.4H7.33844C7.59198 17.398 7.83837 17.484 8.03556 17.6434L14.3241 22.7921C14.406 22.8523 14.5029 22.8886 14.6042 22.8971C14.7055 22.9056 14.8071 22.8858 14.8978 22.84C14.9885 22.7942 15.0648 22.7242 15.1181 22.6377C15.1715 22.5512 15.1998 22.4516 15.2 22.35V3.65C15.1998 3.54838 15.1715 3.4488 15.1181 3.3623C15.0648 3.27581 14.9885 3.20578 14.8978 3.15999C14.8071 3.11421 14.7055 3.09445 14.6042 3.10291C14.5029 3.11137 14.406 3.14773 14.3241 3.20794L8.03556 8.35663C7.84746 8.5155 7.60871 8.60183 7.3625 8.6Z" stroke="#FEFCE1" stroke-width="2.2" stroke-linecap="round" stroke-linejoin="round"/>
</svg>
