<svg width="17" height="19" viewBox="0 0 17 19" fill="none" xmlns="http://www.w3.org/2000/svg">
<path d="M15.3978 5.78855C15.7212 5.97943 15.9196 6.32699 15.9196 6.70251V16.3985C15.9196 16.9847 15.4445 17.4598 14.8583 17.4598H12.7357C12.1496 17.4598 11.6744 16.9847 11.6744 16.3985V12.1532C11.6744 10.3948 10.2489 8.96928 8.49047 8.96928C6.73204 8.96928 5.30655 10.3948 5.30655 12.1532V16.3985C5.30655 16.9847 4.83138 17.4598 4.24524 17.4598H2.12262C1.53647 17.4598 1.06131 16.9847 1.06131 16.3985V6.70251C1.06131 6.32699 1.25975 5.97943 1.58313 5.78855L7.95098 2.02974L7.41149 1.11578L7.95098 2.02974C8.28381 1.83328 8.69713 1.83328 9.02996 2.02974L15.3978 5.78855Z" fill="white" stroke="white" stroke-width="2.12262" stroke-linecap="round" stroke-linejoin="round"/>
</svg>
