<svg width="18" height="6" viewBox="0 0 18 6" fill="none" xmlns="http://www.w3.org/2000/svg">
<path d="M3 4C3.55 4 4 3.55 4 3C4 2.45 3.55 2 3 2C2.45 2 2 2.45 2 3C2 3.55 2.45 4 3 4Z" fill="#FEFCE1"/>
<path d="M9 4C9.55 4 10 3.55 10 3C10 2.45 9.55 2 9 2C8.45 2 8 2.45 8 3C8 3.55 8.45 4 9 4Z" fill="#FEFCE1"/>
<path d="M15 4C15.55 4 16 3.55 16 3C16 2.45 15.55 2 15 2C14.45 2 14 2.45 14 3C14 3.55 14.45 4 15 4Z" fill="#FEFCE1"/>
<path d="M3 4C3.55 4 4 3.55 4 3C4 2.45 3.55 2 3 2C2.45 2 2 2.45 2 3C2 3.55 2.45 4 3 4Z" stroke="#FEFCE1" stroke-width="2.66667"/>
<path d="M9 4C9.55 4 10 3.55 10 3C10 2.45 9.55 2 9 2C8.45 2 8 2.45 8 3C8 3.55 8.45 4 9 4Z" stroke="#FEFCE1" stroke-width="2.66667"/>
<path d="M15 4C15.55 4 16 3.55 16 3C16 2.45 15.55 2 15 2C14.45 2 14 2.45 14 3C14 3.55 14.45 4 15 4Z" stroke="#FEFCE1" stroke-width="2.66667"/>
</svg>
