<svg width="18" height="17" viewBox="0 0 18 17" fill="none" xmlns="http://www.w3.org/2000/svg">
<path d="M6 13.5C6 14.8807 4.88071 16 3.5 16C2.11929 16 1 14.8807 1 13.5C1 12.1193 2.11929 11 3.5 11C4.88071 11 6 12.1193 6 13.5ZM6 13.5V2.91321C6 2.39601 6.39439 1.96415 6.90946 1.91732L15.9095 1.09914C16.4951 1.0459 17 1.507 17 2.09503V12.5M17 12.5C17 13.8807 15.8807 15 14.5 15C13.1193 15 12 13.8807 12 12.5C12 11.1193 13.1193 10 14.5 10C15.8807 10 17 11.1193 17 12.5Z" stroke="#FEFCE1" stroke-width="2" stroke-linecap="round" stroke-linejoin="round"/>
</svg>
