<svg width="40" height="39" viewBox="0 0 40 39" fill="none" xmlns="http://www.w3.org/2000/svg">
<path d="M21.7068 33.2705C22.7102 30.482 24.3287 27.8584 26.5605 25.6141L26.6013 25.5734C28.8367 23.338 31.4479 21.7159 34.2258 20.7037C35.956 20.0744 37.75 19.6808 39.5564 19.5266C37.7553 19.4273 35.9666 19.0887 34.2417 18.5144C31.3469 17.5535 28.6346 15.9244 26.3372 13.627C24.0415 11.3313 22.4106 8.61545 21.4497 5.72236C20.8328 3.86809 20.4907 1.93936 20.4216 0L20.3471 0.0744546C20.2142 1.99964 19.8118 3.91064 19.1417 5.74895C18.133 8.51441 16.5145 11.1168 14.2915 13.3469L14.2755 13.3628C12.0543 15.584 9.45902 17.2025 6.69888 18.2148C4.84816 18.8937 2.92475 19.2997 0.987157 19.4344L0.964111 19.4575C2.89993 19.5266 4.82334 19.8687 6.67407 20.4821C9.5707 21.4447 12.2901 23.0738 14.5893 25.3748C16.8903 27.6758 18.5177 30.3916 19.4802 33.29C20.0954 35.1408 20.4375 37.0642 20.5067 39L20.5191 38.9876C20.6414 37.05 21.0367 35.123 21.7032 33.2688L21.7068 33.2705Z" fill="#E2FF08"/>
</svg>
